<svg id="Capa_1" data-name="Capa 1" xmlns="http://www.w3.org/2000/svg" viewBox="0 0 30 30"><defs><style>.cls-1{fill:#fff;}</style></defs><title>facebook copia</title><path class="cls-1" d="M19.39,6.34h2.87v-6H17.81c-.43,0-5.74-.12-7.11,5.12a13.54,13.54,0,0,0-.46,4.21H7.74v6.24h2.51V29.65h7.28V15.93h3.32V9.68H17.53v-1C17.53,7.63,17.23,6.34,19.39,6.34Zm.25,4.55v3.84H16.32v13.7H11.45V14.71l-2.51,0V10.9h2.52v-.62a13.83,13.83,0,0,1,.41-4.43,5.74,5.74,0,0,1,5.9-4.27h3.3V5.15H19.39c-2.82,0-3.07,1.84-3.07,3.56v2.18Z"/></svg>