<svg id="Capa_1" data-name="Capa 1" xmlns="http://www.w3.org/2000/svg" viewBox="0 0 30 30"><defs><style>.cls-1{fill:#fff;}</style></defs><title>instagram copia</title><path class="cls-1" d="M24.17,24.17a4.9,4.9,0,0,0,1.22-1.86,8,8,0,0,0,.5-2.64c.05-1.2.07-1.6.07-4.66s0-3.47-.07-4.67a7.9,7.9,0,0,0-.5-2.64,5,5,0,0,0-1.22-1.87,5.19,5.19,0,0,0-1.86-1.22,8.16,8.16,0,0,0-2.64-.5C18.44,4.05,18,4,15,4s-3.43,0-4.67.07a7.93,7.93,0,0,0-2.62.5A5.4,5.4,0,0,0,4.61,7.7a8.67,8.67,0,0,0-.5,2.64c0,1.2-.07,1.6-.07,4.67s0,3.47.07,4.66a8.49,8.49,0,0,0,.5,2.64,5.1,5.1,0,0,0,1.22,1.86A5.29,5.29,0,0,0,7.71,25.4a8.47,8.47,0,0,0,2.62.5c1.21,0,1.61.07,4.67.07s3.46,0,4.67-.07a8.73,8.73,0,0,0,2.64-.5A5.21,5.21,0,0,0,24.17,24.17Zm-4.56.49c-1.21.05-1.58.06-4.61.06s-3.4,0-4.61-.06a6.75,6.75,0,0,1-2.24-.42,3.89,3.89,0,0,1-1.44-.95,3.89,3.89,0,0,1-1-1.45,6.5,6.5,0,0,1-.41-2.24C5.28,18.38,5.28,18,5.28,15s0-3.38.07-4.61a6.69,6.69,0,0,1,.41-2.25,3.85,3.85,0,0,1,1-1.44,3.87,3.87,0,0,1,1.44-.94,7,7,0,0,1,2.24-.42c1.19,0,1.55-.07,4.61-.07s3.42,0,4.61.07a6.49,6.49,0,0,1,2.24.42,4,4,0,0,1,1.46.94,3.84,3.84,0,0,1,.93,1.45,7.19,7.19,0,0,1,.43,2.25v0c0,1.15,0,1.52,0,4.59s0,3.43,0,4.58h0a7.12,7.12,0,0,1-.43,2.25,4.12,4.12,0,0,1-2.39,2.4A7.1,7.1,0,0,1,19.61,24.66Z"/><path class="cls-1" d="M26,10.33a8.39,8.39,0,0,0-.52-2.68,5.58,5.58,0,0,0-3.16-3.16A8.3,8.3,0,0,0,19.67,4C18.44,3.92,18,3.91,15,3.91s-3.45,0-4.67.07a8.14,8.14,0,0,0-2.68.51,5.08,5.08,0,0,0-1.9,1.25A5.2,5.2,0,0,0,4.49,7.65,8.34,8.34,0,0,0,4,10.33c-.05,1.2-.07,1.6-.07,4.68s0,3.47.07,4.67a8.06,8.06,0,0,0,.52,2.67,5.08,5.08,0,0,0,1.25,1.92,5.17,5.17,0,0,0,1.91,1.24,7.78,7.78,0,0,0,2.67.51c1.21.06,1.61.07,4.67.07s3.47,0,4.68-.07a7.79,7.79,0,0,0,2.68-.51,4.88,4.88,0,0,0,1.91-1.25,5.41,5.41,0,0,0,1.25-1.92A8.22,8.22,0,0,0,26,19.67c0-1.2.07-1.6.07-4.66S26.08,11.54,26,10.33ZM15,26c-3.06,0-3.46,0-4.67-.07a8.47,8.47,0,0,1-2.62-.5,5.29,5.29,0,0,1-1.88-1.23,5.1,5.1,0,0,1-1.22-1.86,8.55,8.55,0,0,1-.5-2.64C4.07,18.48,4,18.08,4,15s0-3.47.07-4.67a8.48,8.48,0,0,1,.5-2.63A5.51,5.51,0,0,1,5.83,5.84,5.27,5.27,0,0,1,7.71,4.62a8.09,8.09,0,0,1,2.62-.5C11.56,4.06,12,4.05,15,4.05s3.44,0,4.67.07a8.16,8.16,0,0,1,2.64.5,5.19,5.19,0,0,1,1.86,1.22,5,5,0,0,1,1.22,1.87,7.84,7.84,0,0,1,.5,2.63C26,11.55,26,11.94,26,15s0,3.46-.07,4.66a7.85,7.85,0,0,1-.5,2.64,4.9,4.9,0,0,1-1.22,1.86,5.12,5.12,0,0,1-1.88,1.23,8.47,8.47,0,0,1-2.62.5C18.46,26,18.07,26,15,26Z"/><path class="cls-1" d="M24.24,21.85a7.05,7.05,0,0,0,.43-2.25h0c0-1.15.07-1.53.07-4.58s0-3.44-.07-4.59v0a7.19,7.19,0,0,0-.43-2.25,4.09,4.09,0,0,0-2.39-2.38,7,7,0,0,0-2.24-.42c-1.19,0-1.54-.07-4.61-.07s-3.42,0-4.61.07a6.49,6.49,0,0,0-2.24.42,3.87,3.87,0,0,0-1.44.94,3.58,3.58,0,0,0-.93,1.44,6.2,6.2,0,0,0-.43,2.24C5.29,11.62,5.28,12,5.28,15s0,3.38.07,4.6a6.15,6.15,0,0,0,.43,2.24,4,4,0,0,0,.93,1.45,4,4,0,0,0,1.46.95,7,7,0,0,0,2.23.42c1.21.05,1.59.06,4.61.06s3.41,0,4.62-.06a6.73,6.73,0,0,0,2.23-.42,3.77,3.77,0,0,0,1.46-.95A4.18,4.18,0,0,0,24.24,21.85ZM15,24.59c-3,0-3.39,0-4.61-.07a6.65,6.65,0,0,1-2.2-.4,3.52,3.52,0,0,1-1.4-.93,3.48,3.48,0,0,1-.9-1.39,6.52,6.52,0,0,1-.42-2.21C5.42,18.38,5.4,18,5.4,15s0-3.38.07-4.6a6.64,6.64,0,0,1,.42-2.21,3.63,3.63,0,0,1,.9-1.39,3.85,3.85,0,0,1,1.4-.91,6.58,6.58,0,0,1,2.2-.41c1.18-.05,1.54-.07,4.6-.07s3.43,0,4.61.07a6.65,6.65,0,0,1,2.21.41,3.85,3.85,0,0,1,1.4.91,4,4,0,0,1,.9,1.39,6.46,6.46,0,0,1,.42,2.21v0c0,1.14.07,1.52.07,4.58s0,3.43-.07,4.58h0a6.41,6.41,0,0,1-.42,2.21,3.83,3.83,0,0,1-.9,1.39,3.44,3.44,0,0,1-1.42.91,6.25,6.25,0,0,1-2.19.41C18.39,24.59,18,24.59,15,24.59Z"/><path class="cls-1" d="M15,9.57A5.43,5.43,0,1,0,20.44,15,5.44,5.44,0,0,0,15,9.57Zm0,9.62A4.19,4.19,0,1,1,19.19,15,4.18,4.18,0,0,1,15,19.19Z"/><path class="cls-1" d="M15,9.44A5.56,5.56,0,1,0,20.57,15,5.57,5.57,0,0,0,15,9.44Zm0,11A5.43,5.43,0,1,1,20.44,15,5.43,5.43,0,0,1,15,20.43Z"/><path class="cls-1" d="M15,10.81A4.19,4.19,0,1,0,19.19,15,4.19,4.19,0,0,0,15,10.81Zm0,8.26A4.07,4.07,0,1,1,19.07,15,4.07,4.07,0,0,1,15,19.07Z"/><path class="cls-1" d="M21.07,8a1,1,0,1,0,1,1A1,1,0,0,0,21.07,8Z"/><path class="cls-1" d="M21.07,7.85a1.09,1.09,0,0,0,0,2.18,1.09,1.09,0,1,0,0-2.18Zm0,2.05a1,1,0,1,1,1-1A1,1,0,0,1,21.07,9.9Z"/></svg>