<svg id="Capa_1" data-name="Capa 1" xmlns="http://www.w3.org/2000/svg" viewBox="0 0 30 30"><defs><style>.cls-1{fill:#fff;}</style></defs><title>linkedin copia</title><path class="cls-1" d="M5.43,2.77A2.77,2.77,0,0,0,2.5,5.56,2.74,2.74,0,0,0,5.38,8.34a3,3,0,0,0,2.15-.81,2.79,2.79,0,0,0-2.1-4.76Zm1.34,4a1.94,1.94,0,0,1-1.39.5A1.67,1.67,0,0,1,3.6,5.55a1.68,1.68,0,0,1,1.84-1.7,1.67,1.67,0,0,1,1.81,1.7A1.64,1.64,0,0,1,6.77,6.75Z"/><path class="cls-1" d="M3,27.23H7.91v-18H3ZM4.11,10.35H6.82V26.14H4.11Z"/><path class="cls-1" d="M20.8,9.26a6.36,6.36,0,0,0-4.46,1.52l-.15-1.52H10.66v18h5.42V17.79a5.36,5.36,0,0,1,.27-1.48c.65-1.41,1.54-1.41,2.87-1.41a3,3,0,0,1,2.84,3.15v9.17H27.5V17.07C27.49,11.7,24,9.26,20.8,9.26Zm5.61,16.88H23.15V18.05a4.15,4.15,0,0,0-3.93-4.24c-1.37,0-2.91,0-3.86,2A6.12,6.12,0,0,0,15,17.78v8.35H11.75V10.35h3.46l.22,2.2h.89l.16-.26c.36-.58,1.51-1.94,4.32-1.94s5.61,2.11,5.61,6.73Z"/></svg>