<svg id="Capa_1" data-name="Capa 1" xmlns="http://www.w3.org/2000/svg" viewBox="0 0 30 30"><defs><style>.cls-1{fill:#fff;}</style></defs><title>twitter copia</title><path class="cls-1" d="M27.88,6.67a.59.59,0,0,0-.67,0,2.09,2.09,0,0,1-.67.32,3,3,0,0,0,.86-1.91.57.57,0,0,0-.33-.49.62.62,0,0,0-.59,0,5,5,0,0,1-2.86,1,5.61,5.61,0,0,0-3.84-1.52,5.67,5.67,0,0,0-5.63,5.71,5.14,5.14,0,0,0,0,.71c-5.13-.12-9.32-5-9.5-5.17a.58.58,0,0,0-.44-.21h0a.54.54,0,0,0-.45.27A5.63,5.63,0,0,0,4,11.53s0,0-.05,0a.62.62,0,0,0-.6-.07.6.6,0,0,0-.33.51,5.47,5.47,0,0,0,2.18,4.71,1.07,1.07,0,0,0-.25.16.58.58,0,0,0-.13.56,5.36,5.36,0,0,0,3.85,3.77A8,8,0,0,1,4,22.44a10.63,10.63,0,0,1-1.45-.09.55.55,0,0,0-.63.34.56.56,0,0,0,.18.68,13.57,13.57,0,0,0,8.24,2.51,17,17,0,0,0,3.13-.27c5-1.18,8.48-3.9,10.46-8.07a17.21,17.21,0,0,0,1.61-7.24c2.12-2,2.52-2.79,2.59-3A.54.54,0,0,0,27.88,6.67ZM13.19,24.51a15.13,15.13,0,0,1-2.84.25A13.85,13.85,0,0,1,4.7,23.62a8,8,0,0,0,5.65-2.44.59.59,0,0,0,.1-.64.63.63,0,0,0-.53-.34h0a4.32,4.32,0,0,1-3.63-2.29H6.4a3,3,0,0,0,1.29-.24.58.58,0,0,0-.13-1.09A4.38,4.38,0,0,1,4.22,13a2.68,2.68,0,0,0,1.46.21.58.58,0,0,0,.47-.41A.57.57,0,0,0,6,12.17c-.11-.1-2.74-2.39-1.58-5.41,1.51,1.56,5.32,4.92,10,4.92h.55a.55.55,0,0,0,.43-.22.62.62,0,0,0,.1-.49,4.81,4.81,0,0,1-.14-1.14,4.51,4.51,0,0,1,4.48-4.55A4.42,4.42,0,0,1,23,6.62a.65.65,0,0,0,.41.18h.08a6.14,6.14,0,0,0,2-.34,7.5,7.5,0,0,1-1.08,1,.6.6,0,0,0-.18.68.57.57,0,0,0,.53.36h.05a10.52,10.52,0,0,0,1.11-.14c-.39.39-.84.84-1.35,1.3a.56.56,0,0,0-.18.46C24.39,10.59,24.94,21.71,13.19,24.51Z"/></svg>