<svg id="Capa_1" data-name="Capa 1" xmlns="http://www.w3.org/2000/svg" viewBox="0 0 30 30"><defs><style>.cls-1{fill:#fff;}</style></defs><title>youtube copia</title><path class="cls-1" d="M20.25,13.69,12.36,9a1.51,1.51,0,0,0-2.28,1.3v9.31a1.52,1.52,0,0,0,1.51,1.51,1.57,1.57,0,0,0,.77-.21l7.9-4.65A1.49,1.49,0,0,0,21,15,1.51,1.51,0,0,0,20.25,13.69Zm-.6,1.58-7.89,4.65a.3.3,0,0,1-.17,0,.33.33,0,0,1-.33-.33V10.33a.33.33,0,0,1,.33-.33.37.37,0,0,1,.17.05l7.9,4.65a.32.32,0,0,1,.16.28A.32.32,0,0,1,19.65,15.27Z"/><path class="cls-1" d="M29,8.11A4.41,4.41,0,0,0,25.3,4.39,76.62,76.62,0,0,0,15,3.69,75.69,75.69,0,0,0,4.67,4.4,4.43,4.43,0,0,0,1,8.14,58.47,58.47,0,0,0,1,21.88,4.41,4.41,0,0,0,4.69,25.6a75,75,0,0,0,10.3.71,75.34,75.34,0,0,0,10.25-.7h.08A4.42,4.42,0,0,0,29,21.86,57.5,57.5,0,0,0,29,8.11ZM27.84,21.73a3.22,3.22,0,0,1-2.63,2.69h-.08a74.18,74.18,0,0,1-10.14.7,74.83,74.83,0,0,1-10.17-.7,3.19,3.19,0,0,1-2.68-2.69,57.34,57.34,0,0,1,0-13.48,3.26,3.26,0,0,1,2.7-2.69,74.46,74.46,0,0,1,20.3,0,3.23,3.23,0,0,1,2.69,2.71A56.56,56.56,0,0,1,27.84,21.73Z"/></svg>